<?xml version="1.0" encoding="utf-8"?>
<!-- Generator: Adobe Illustrator 16.0.0, SVG Export Plug-In . SVG Version: 6.00 Build 0)  -->
<!DOCTYPE svg PUBLIC "-//W3C//DTD SVG 1.1//EN" "http://www.w3.org/Graphics/SVG/1.1/DTD/svg11.dtd">
<svg version="1.1" xmlns="http://www.w3.org/2000/svg" xmlns:xlink="http://www.w3.org/1999/xlink" x="0px" y="0px" width="273px"
	 height="287px" viewBox="0 0 273 287" enable-background="new 0 0 273 287" xml:space="preserve">
<g id="Layer_2">
	<rect fill="#202123" width="273" height="287"/>
</g>
<g id="Layer_3">
	
		<text transform="matrix(0.8928 -0.4504 0.4504 0.8928 32.7539 34.1636)" opacity="0.07" fill="#FFFFFF" font-family="'MyriadPro-Regular'" font-size="18">&lt;/&gt;</text>
	<text transform="matrix(1 0 0 1 76 59.5)" opacity="0.07" fill="#FFFFFF" font-family="'MyriadPro-Regular'" font-size="16">true</text>
	
		<text transform="matrix(0.9549 0.2969 -0.2969 0.9549 202.1221 72.623)" opacity="0.07" fill="#FFFFFF" font-family="'MyriadPro-Regular'" font-size="16">if</text>
	
		<text transform="matrix(0.8928 -0.4504 0.4504 0.8928 147.2539 179.1641)" opacity="0.07" fill="#FFFFFF" font-family="'MyriadPro-Regular'" font-size="18">&lt;/&gt;</text>
	
		<text transform="matrix(0.9998 0.0198 -0.0198 0.9998 142.9141 27.3682)" opacity="0.07" fill="#FFFFFF" font-family="'MyriadPro-Regular'" font-size="22">{ }</text>
	
		<text transform="matrix(0.8059 -0.592 0.592 0.8059 101.5918 122.731)" opacity="0.07" fill="#FFFFFF" font-family="'MyriadPro-Regular'" font-size="20">;</text>
	
		<text transform="matrix(0.9998 0.0198 -0.0198 0.9998 26.7568 253.0342)" opacity="0.07" fill="#FFFFFF" font-family="'MyriadPro-Regular'" font-size="22">!</text>
	
		<text transform="matrix(0.8547 -0.5191 0.5191 0.8547 14.6475 191.7256)" opacity="0.07" fill="#FFFFFF" font-family="'MyriadPro-Regular'" font-size="15">false</text>
	
		<text transform="matrix(0.969 -0.2472 0.2472 0.969 83.4072 206.4082)" opacity="0.07" fill="#FFFFFF" font-family="'MyriadPro-Regular'" font-size="17">(  )</text>
	
		<text transform="matrix(0.9052 0.4249 -0.4249 0.9052 212.5215 200.8936)" opacity="0.07" fill="#FFFFFF" font-family="'MyriadPro-Regular'" font-size="20">;</text>
	
		<text transform="matrix(0.968 0.251 -0.251 0.968 232.3359 259.1982)" opacity="0.07" fill="#FFFFFF" font-family="'MyriadPro-Regular'" font-size="22">{ }</text>
	
		<text transform="matrix(0.989 0.148 -0.148 0.989 154.5195 111.1035)" opacity="0.07" fill="#FFFFFF" font-family="'MyriadPro-Regular'" font-size="19">=&gt;</text>
	
		<text transform="matrix(0.989 0.148 -0.148 0.989 162.0195 250.1035)" opacity="0.07" fill="#FFFFFF" font-family="'MyriadPro-Regular'" font-size="19">==</text>
	
		<text transform="matrix(0.9253 0.3792 -0.3792 0.9253 14.6978 102.9551)" opacity="0.07" fill="#FFFFFF" font-family="'MyriadPro-Regular'" font-size="18">++</text>
	
		<text transform="matrix(0.8408 0.5413 -0.5413 0.8408 239.5176 27.8281)" opacity="0.07" fill="#FFFFFF" font-family="'MyriadPro-Regular'" font-size="16">&amp;&amp;</text>
	
		<text transform="matrix(0.9133 -0.4072 0.4072 0.9133 97.8086 274.3301)" opacity="0.07" fill="#FFFFFF" font-family="'MyriadPro-Regular'" font-size="16">var</text>
	
		<text transform="matrix(0.9157 0.4019 -0.4019 0.9157 219.458 128.1758)" opacity="0.07" fill="#FFFFFF" font-family="'MyriadPro-Regular'" font-size="15">const</text>
</g>
</svg>
