<?xml version="1.0" encoding="utf-8"?>
<!-- Generator: Adobe Illustrator 16.0.0, SVG Export Plug-In . SVG Version: 6.00 Build 0)  -->
<!DOCTYPE svg PUBLIC "-//W3C//DTD SVG 1.1//EN" "http://www.w3.org/Graphics/SVG/1.1/DTD/svg11.dtd">
<svg version="1.1" xmlns="http://www.w3.org/2000/svg" xmlns:xlink="http://www.w3.org/1999/xlink" x="0px" y="0px" width="24px"
	 height="24px" viewBox="0 0 24 24" enable-background="new 0 0 24 24" xml:space="preserve">
<g id="Layer_2" display="none">
	<rect display="inline" width="24" height="24"/>
</g>
<g id="Layer_1">
	<g>
		
			<path fill="none" stroke="#FFFFFF" stroke-width="0.6" stroke-linecap="round" stroke-linejoin="round" stroke-miterlimit="10" d="
			M17.5,12.5h1c1.656,0,3,1.344,3,3s-1.344,3-3,3h-1"/>
		
			<path fill="none" stroke="#FFFFFF" stroke-width="0.6" stroke-linecap="round" stroke-linejoin="round" stroke-miterlimit="10" d="
			M17.5,21.5c0,1.104-0.896,2-2,2h-9c-1.104,0-2-0.896-2-2v-11h13V21.5z M17.381,0.564C18.414,2.138,16.885,3,16.527,3.846
			c-0.377,0.895-0.01,1.752,0.886,2.129C20.312,7.197,21.177,1.482,17.381,0.564z M14.5,10.5l2.609-4.688 M18.141,6.156L16.5,10.5"
			/>
		
			<path fill="none" stroke="#FFFFFF" stroke-width="0.6" stroke-linecap="round" stroke-linejoin="round" stroke-miterlimit="10" d="
			M8.5,10.5h-3L4,7.5l-0.5-3L6,6L8.5,10.5z M4,7.5L6,6"/>
		
			<path fill="none" stroke="#FFFFFF" stroke-width="0.6" stroke-linecap="round" stroke-linejoin="round" stroke-miterlimit="10" d="
			M9.5,0.5h4v10h-4V0.5z M13.5,2.5h-2 M13.5,4.5h-1 M13.5,6.5h-2 M13.5,8.5h-1"/>
	</g>
</g>
</svg>
