<?xml version="1.0" encoding="utf-8"?>
<!-- Generator: Adobe Illustrator 16.0.0, SVG Export Plug-In . SVG Version: 6.00 Build 0)  -->
<!DOCTYPE svg PUBLIC "-//W3C//DTD SVG 1.1//EN" "http://www.w3.org/Graphics/SVG/1.1/DTD/svg11.dtd">
<svg version="1.1" id="Layer_1" xmlns="http://www.w3.org/2000/svg" xmlns:xlink="http://www.w3.org/1999/xlink" x="0px" y="0px"
	 width="90px" height="84px" viewBox="0 0 90 84" enable-background="new 0 0 90 84" xml:space="preserve">
<g id="Layer_1_1_" display="none">
	<g id="U4Sx3f.tif" display="inline">
		
			<image overflow="visible" enable-background="new    " width="127" height="127" id="Layer_0_1_" xlink:href="9C3A306A8C8C249D.png"  transform="matrix(-1 0 0 1 185.5117 -108.876)">
		</image>
	</g>
</g>
<g id="Layer_2">
	<path fill="none" stroke="#FFFFFF" stroke-width="4" stroke-miterlimit="10" d="M17.097,80.799c0,0-10.901-39.093-6.147-48.073
		c4.755-8.979,11.094-24.3,17.961-27.471c6.868-3.169,24.301-2.233,27.999-1.706c3.697,0.527,9.011,7.022,12.182,9.631
		c5.78,4.754-3.359,9.881-8.693,7.29c0,0-6.133-4.231-8.242-4.12c-2.107,0.111-13.492,0.363-15.314,3.828
		c-1.821,3.464-8.636,14.468-10.044,19.102c-0.58,1.91,0.53,9.295,0.53,9.295s1.352,2.835,6.333,9.296
		c3.434,4.456,10.563,5.564,19.024-1.898c8.979-7.926,14.264-11.096,14.264-11.096s6.341-3.168,9.508,0
		c3.17,3.169,3.167,2.641-3.698,9.509C68.137,59.008,56.715,71.514,54.5,74.771c-2.214,3.26-8.154,6.026-8.154,6.026"/>
	<path fill="none" stroke="#FFFFFF" stroke-width="4" stroke-miterlimit="10" d="M36.104,20.914l15.976,1.167
		c0,0,4.99,2.303,9.085,5.168c4.543,3.181,9.541,1.929,9.541-1.251s-2.815-5.82-2.815-5.82"/>
	<path fill="none" stroke="#FFFFFF" stroke-width="3" stroke-miterlimit="10" d="M65.947,28.542c0,0,0.312,1.665-1.553,2.73
		c-1.867,1.067-9.217-4.498-11.774-5.032c-1.011-0.212-10.347-1.839-13.619-0.551L27.503,37.85"/>
</g>
<g id="Layer_3" display="none">
	<g display="inline">
		<g>
			<path fill="#B31F20" d="M140.365-5.4c7.414-0.986,14.328-3.686,20.49-7.887c4.693-3.201,16.896-8.443,13.086-16.082
				c-3.426-6.869-9.803-4.033-14.651-0.482c-1.556,1.141-4.905,4.23-6.69,1.459c-1.447-2.246-0.608-5.707-0.033-8.08
				c0.703-2.895,1.934-5.712,3.342-8.331c0.936-1.739,1.936-3.438,3.003-5.098c1.004-1.562,2.116-3.191,3.61-4.327
				c0.854-0.65,3.785,1.31,4.717,1.69c6.529,2.668,7.468-5.405,5.515-9.753c-3.022-6.732-12.084-8.992-18.213-5.912
				c-5.897,2.964-10.563,11.315-13.599,16.922c-0.768,1.418,1.392,2.68,2.158,1.262c2.873-5.307,6.422-10.37,10.795-14.539
				c4.734-4.517,10.304-2.666,14.672,1.045c2.258,1.917,2.986,4.441,2.582,7.327c-0.469,3.357-5.271,0.321-6.444-0.239
				c-5.771-2.754-11.093,10.065-12.86,14.411c-1.9,4.672-3.57,10.037-1.402,14.885c2.132,4.766,7.35,1.43,10.113-0.561
				c2.983-2.152,7.521-5.914,10.65-1.578c3.99,5.527-6.553,10.516-10.07,12.805c-6.457,4.203-13.029,7.535-20.769,8.564
				C138.791-7.691,138.771-5.189,140.365-5.4L140.365-5.4z"/>
		</g>
	</g>
</g>
</svg>
