<?xml version="1.0" encoding="utf-8"?>
<!-- Generator: Adobe Illustrator 16.0.0, SVG Export Plug-In . SVG Version: 6.00 Build 0)  -->
<!DOCTYPE svg PUBLIC "-//W3C//DTD SVG 1.1//EN" "http://www.w3.org/Graphics/SVG/1.1/DTD/svg11.dtd">
<svg version="1.1" xmlns="http://www.w3.org/2000/svg" xmlns:xlink="http://www.w3.org/1999/xlink" x="0px" y="0px" width="357px"
	 height="84px" viewBox="0 0 357 84" enable-background="new 0 0 357 84" xml:space="preserve">
<g id="Layer_1">
	<g id="Layer_3" display="none">
		<g display="inline">
			<g>
				<path fill="#B31F20" d="M140.365-5.4c7.414-0.986,14.328-3.686,20.49-7.887c4.69-3.201,16.896-8.443,13.086-16.082
					c-3.426-6.869-9.803-4.033-14.651-0.482c-1.556,1.141-4.905,4.23-6.69,1.459c-1.447-2.246-0.605-5.707-0.033-8.08
					c0.703-2.895,1.937-5.712,3.345-8.331c0.938-1.739,1.938-3.438,3.003-5.098c1.004-1.562,2.113-3.191,3.607-4.327
					c0.854-0.65,3.785,1.31,4.717,1.69c6.529,2.668,7.471-5.405,5.518-9.753c-3.021-6.732-12.084-8.992-18.213-5.912
					c-5.896,2.964-10.562,11.315-13.602,16.922c-0.768,1.418,1.395,2.68,2.158,1.262c2.873-5.307,6.422-10.37,10.795-14.539
					c4.734-4.517,10.307-2.666,14.672,1.045c2.261,1.917,2.986,4.441,2.582,7.327c-0.469,3.357-5.271,0.321-6.441-0.239
					c-5.771-2.754-11.096,10.065-12.857,14.411c-1.9,4.672-3.57,10.037-1.402,14.885c2.132,4.766,7.35,1.43,10.113-0.561
					c2.98-2.152,7.521-5.914,10.647-1.578c3.987,5.527-6.556,10.516-10.067,12.805c-6.457,4.203-13.029,7.535-20.771,8.564
					C138.791-7.691,138.771-5.189,140.365-5.4L140.365-5.4z"/>
			</g>
		</g>
	</g>
	<g id="Layer_2_1_" opacity="0.9">
		<path fill="none" stroke="#000000" stroke-width="3.9594" stroke-miterlimit="10" d="M11.021,80.658
			c0,0-10.792-38.695-6.082-47.583C9.646,24.186,15.915,9.018,22.717,5.882c6.799-3.138,24.054-2.21,27.713-1.689
			c3.66,0.521,8.917,6.951,12.062,9.532c5.716,4.706-3.326,9.783-8.605,7.216c0,0-6.076-4.187-8.16-4.078
			c-2.084,0.11-13.354,0.361-15.157,3.788c-1.803,3.431-8.548,14.323-9.942,18.909c-0.573,1.891,0.523,9.202,0.523,9.202
			s1.339,2.805,6.271,9.202c3.399,4.409,10.458,5.505,18.825-1.882C55.139,48.236,60.37,45.1,60.37,45.1s6.277-3.135,9.411,0
			c3.137,3.137,3.135,2.614-3.66,9.411c-4.576,4.573-15.882,16.954-18.072,20.183c-2.195,3.226-8.074,5.965-8.074,5.965"/>
		<path fill="none" stroke="#000000" stroke-width="3.9594" stroke-miterlimit="10" d="M29.838,21.381l15.813,1.156
			c0,0,4.937,2.28,8.991,5.115c4.498,3.15,9.443,1.909,9.443-1.238c0-3.149-2.781-5.763-2.781-5.763"/>
		<path fill="none" stroke="#000000" stroke-width="2.9696" stroke-miterlimit="10" d="M59.377,28.932c0,0,0.308,1.648-1.534,2.704
			c-1.853,1.055-9.128-4.454-11.659-4.984c-0.998-0.208-10.239-1.819-13.481-0.543l-11.38,12.037"/>
	</g>
	<g enable-background="new    ">
		<path d="M103.459,49.625c0.393,0.512,0.541,1.103,0.443,1.771c-0.099,0.669-0.463,1.201-1.092,1.594
			c-1.338,0.748-2.863,1.427-4.575,2.036c-1.712,0.61-3.297,0.994-4.752,1.151c-1.732,0.157-3.061,0.06-3.984-0.295
			c-0.925-0.354-1.722-1.043-2.391-2.066c-0.276-0.354-0.522-0.886-0.738-1.594c-0.217-0.708-0.325-1.338-0.325-1.889
			c-0.04-0.314-0.187-0.502-0.443-0.562c-0.256-0.059-0.541,0.03-0.856,0.266c-0.433,0.276-0.955,0.66-1.564,1.151
			c-0.611,0.493-1.26,1.033-1.948,1.624c-0.689,0.59-1.387,1.2-2.096,1.829c-0.708,0.63-1.378,1.2-2.007,1.712
			c-1.496,1.142-2.893,1.742-4.191,1.801c-1.299,0.06-2.361-0.286-3.188-1.033c-1.024-0.905-1.535-2.264-1.535-4.073
			c0.039-0.865,0.177-1.721,0.413-2.567c0.236-0.846,0.551-1.662,0.945-2.45c0.59-1.181,1.318-2.341,2.184-3.482
			c0.865-1.142,1.78-2.214,2.745-3.218c0.964-1.003,1.938-1.908,2.922-2.715c0.983-0.807,1.889-1.485,2.715-2.037
			c0.708-0.473,1.515-0.974,2.42-1.505c0.905-0.531,1.879-0.925,2.922-1.181c1.042-0.256,2.134-0.305,3.276-0.148
			c1.141,0.158,2.282,0.709,3.424,1.653c0.511,0.434,0.787,0.906,0.826,1.417c0.039,0.512-0.059,0.984-0.295,1.417
			c-0.315,0.551-0.817,0.915-1.505,1.092c-0.689,0.177-1.349,0.069-1.978-0.325c-0.906-0.708-1.899-0.974-2.981-0.797
			c-1.083,0.178-2.352,0.759-3.808,1.742c-0.708,0.472-1.505,1.092-2.391,1.859c-0.886,0.768-1.742,1.604-2.568,2.509
			c-0.827,0.905-1.604,1.84-2.332,2.804c-0.729,0.965-1.309,1.899-1.741,2.805c-0.236,0.472-0.394,1.043-0.472,1.712
			c-0.08,0.669,0.039,1.121,0.354,1.357c0.433,0.354,1.062,0.177,1.889-0.531c0.59-0.511,1.328-1.142,2.214-1.89
			c0.885-0.747,1.8-1.505,2.745-2.272c0.945-0.768,1.879-1.505,2.804-2.214c0.924-0.708,1.741-1.278,2.45-1.712
			c0.59-0.354,1.19-0.6,1.801-0.737c0.609-0.138,1.151-0.147,1.623-0.03c0.473,0.118,0.846,0.375,1.122,0.768
			c0.275,0.395,0.414,0.926,0.414,1.594c-0.04,0.788-0.03,1.526,0.029,2.214c0.059,0.689,0.187,1.29,0.384,1.801
			c0.236,0.67,0.561,1.122,0.974,1.357c0.413,0.236,0.954,0.335,1.623,0.296c0.511-0.079,1.102-0.207,1.771-0.384
			c0.669-0.178,1.338-0.384,2.007-0.62c0.669-0.236,1.328-0.481,1.978-0.738c0.649-0.255,1.21-0.502,1.683-0.737
			c0.59-0.275,1.101-0.354,1.535-0.236C102.771,49.035,103.144,49.271,103.459,49.625z"/>
		<path d="M119.752,39.107c0,0.498-0.177,0.949-0.531,1.354c-0.354,0.403-0.906,0.625-1.653,0.664c-0.866,0-2.116-0.039-3.749-0.118
			c-1.634-0.079-3.217-0.118-4.752-0.118c0,1.103,0.039,2.253,0.118,3.453c0.079,1.201,0.187,2.361,0.325,3.483
			c0.137,1.121,0.285,2.194,0.443,3.217c0.157,1.023,0.334,1.909,0.531,2.656c0.157,0.67,0.068,1.229-0.266,1.683
			c-0.335,0.452-0.758,0.738-1.271,0.856c-0.559,0.156-1.137,0.088-1.735-0.207c-0.598-0.295-0.997-0.856-1.196-1.683
			c-0.439-1.731-0.788-3.778-1.047-6.139c-0.259-2.361-0.388-4.802-0.388-7.32h-4.31c-0.708,0.039-1.25-0.151-1.623-0.574
			c-0.375-0.421-0.561-0.9-0.561-1.437s0.177-1.024,0.531-1.465c0.354-0.441,0.905-0.699,1.653-0.776
			c0.511,0,1.141-0.01,1.889-0.029c0.747-0.019,1.554-0.028,2.42-0.028c0-1.22,0.049-2.617,0.147-4.191
			c0.098-1.573,0.256-3.217,0.472-4.929c0.216-1.712,0.473-3.424,0.768-5.136c0.295-1.712,0.62-3.336,0.974-4.87
			c-0.434-0.197-0.571-0.57-0.413-1.122c0.078-0.274,0.236-0.6,0.472-0.974c0.236-0.374,0.452-0.738,0.649-1.093
			c0.078-0.196,0.157-0.402,0.236-0.619c0.079-0.216,0.157-0.403,0.236-0.562c0.275-0.629,0.708-1.013,1.299-1.15
			s1.141-0.05,1.653,0.266c0.433,0.235,0.787,0.57,1.062,1.003c0.275,0.434,0.393,0.944,0.354,1.535
			c0,0.434-0.079,0.797-0.236,1.092c-0.158,0.295-0.335,0.601-0.531,0.915c-0.354,1.299-0.689,2.795-1.004,4.486
			c-0.315,1.692-0.6,3.435-0.856,5.225c-0.256,1.791-0.453,3.571-0.59,5.343c-0.138,1.771-0.207,3.364-0.207,4.781
			c0.433,0,1.033,0.01,1.801,0.028c0.767,0.02,1.573,0.048,2.42,0.087c0.846,0.039,1.691,0.087,2.538,0.144
			c0.846,0.058,1.564,0.125,2.155,0.201c0.59,0.077,1.033,0.315,1.328,0.718C119.605,38.159,119.752,38.609,119.752,39.107z"/>
		<path d="M157.829,48.857c0.275,0.513,0.334,1.062,0.177,1.646c-0.158,0.586-0.571,1.034-1.239,1.345
			c-1.771,0.776-3.395,1.416-4.87,1.921c-1.476,0.506-3.041,0.776-4.693,0.815c-1.496,0.039-2.913-0.154-4.25-0.582
			c-1.338-0.427-2.519-1.281-3.542-2.562c-0.708-0.895-1.25-1.912-1.624-3.054c-0.375-1.142-0.66-2.086-0.856-2.834
			c-0.236-0.983-0.63-1.524-1.181-1.623c-0.552-0.098-1.338,0.168-2.361,0.797c-0.552,0.315-1.24,0.777-2.066,1.388
			c-0.827,0.61-1.683,1.289-2.568,2.036c-0.885,0.748-1.751,1.532-2.597,2.352c-0.847,0.819-1.584,1.598-2.214,2.336
			c-0.434,0.544-0.925,0.913-1.476,1.107c-0.552,0.193-1.073,0.242-1.564,0.146c-0.493-0.097-0.925-0.35-1.299-0.758
			c-0.375-0.407-0.581-0.961-0.62-1.66c-0.236-3.175-0.364-6.268-0.384-9.278c-0.021-3.011,0.137-5.844,0.472-8.5
			c0.334-2.657,0.856-5.086,1.564-7.291c0.708-2.203,1.653-4.132,2.833-5.785c0.393-0.59,0.886-0.924,1.476-1.004
			c0.59-0.078,1.141,0,1.653,0.236c0.59,0.315,0.983,0.748,1.181,1.299c0.196,0.552,0.019,1.161-0.531,1.83
			c-1.063,1.26-1.88,2.873-2.45,4.841c-0.571,1.969-0.984,4.083-1.24,6.346c-0.256,2.264-0.394,4.536-0.413,6.818
			c-0.02,2.283-0.01,4.33,0.03,6.14c0.55-0.591,1.21-1.22,1.978-1.89c0.767-0.668,1.535-1.308,2.302-1.918
			c0.767-0.61,1.514-1.171,2.243-1.683c0.728-0.511,1.328-0.924,1.8-1.239c1.141-0.669,2.292-1.142,3.454-1.417
			c1.16-0.275,2.213-0.236,3.158,0.118c0.865,0.315,1.544,0.807,2.037,1.476c0.492,0.67,0.856,1.594,1.092,2.774
			c0.157,0.826,0.403,1.752,0.738,2.774c0.333,1.024,0.717,1.791,1.151,2.303c0.433,0.551,0.905,0.965,1.417,1.239
			c0.511,0.275,1.337,0.413,2.479,0.413c1.063,0,2.214-0.196,3.454-0.59s2.745-0.983,4.516-1.771
			c0.668-0.314,1.24-0.363,1.712-0.147C157.179,47.982,157.553,48.347,157.829,48.857z"/>
		<path d="M182.091,39.767c0.079,0.906,0.118,2.087,0.118,3.542c0,1.457-0.059,3.08-0.174,4.87c-0.117,1.792-0.261,3.7-0.434,5.727
			s-0.394,4.082-0.662,6.169c-0.268,2.085-0.557,4.151-0.862,6.198c-0.306,2.046-0.651,3.975-1.034,5.785
			c-0.154,0.787-0.5,1.337-1.041,1.653c-0.541,0.314-1.086,0.413-1.637,0.295c-0.59-0.079-1.073-0.364-1.446-0.856
			c-0.375-0.492-0.463-1.151-0.266-1.978c0.472-1.851,0.885-3.916,1.24-6.198c0.354-2.283,0.649-4.604,0.885-6.966
			c0.236-2.361,0.422-4.673,0.561-6.937c0.137-2.263,0.226-4.299,0.266-6.109c0.038-0.354-0.002-0.61-0.119-0.768
			c-0.118-0.157-0.285-0.256-0.501-0.295c-0.217-0.039-0.442,0-0.679,0.118s-0.453,0.275-0.649,0.472
			c-0.63,0.591-1.417,1.299-2.361,2.125c-0.944,0.827-1.948,1.683-3.011,2.568c-1.062,0.886-2.135,1.741-3.217,2.567
			c-1.083,0.827-2.076,1.535-2.981,2.126c-1.653,1.022-3.237,1.662-4.752,1.918c-1.516,0.256-2.942-0.147-4.28-1.21
			c-0.472-0.433-0.936-1.022-1.387-1.771c-0.453-0.748-0.699-1.751-0.738-3.011c0-0.945,0.148-1.958,0.443-3.041
			c0.295-1.081,0.679-2.134,1.151-3.158c0.472-1.022,0.974-1.967,1.505-2.833c0.531-0.865,1.013-1.555,1.446-2.066
			c0.432-0.551,0.944-0.865,1.535-0.944c0.59-0.078,1.101-0.02,1.535,0.177c0.629,0.315,1.023,0.778,1.181,1.388
			c0.157,0.61-0.059,1.289-0.649,2.036c-0.354,0.434-0.729,0.984-1.122,1.653c-0.394,0.67-0.767,1.357-1.122,2.066
			c-0.354,0.708-0.64,1.416-0.856,2.125c-0.217,0.708-0.325,1.338-0.325,1.889c0,0.434,0.079,0.777,0.236,1.033
			c0.157,0.257,0.314,0.463,0.472,0.62c0.354,0.354,0.816,0.472,1.387,0.354c0.57-0.118,1.249-0.433,2.037-0.945
			c1.181-0.747,2.41-1.623,3.689-2.627c1.278-1.003,2.568-2.065,3.867-3.188c1.299-1.121,2.568-2.252,3.808-3.395
			c1.24-1.141,2.391-2.223,3.454-3.246c0.472-0.512,1.035-0.827,1.689-0.945c0.654-0.118,1.27-0.078,1.844,0.118
			c0.498,0.197,0.93,0.531,1.294,1.004S182.014,38.98,182.091,39.767z"/>
		<path d="M243.07,55.292c0.196,0.669,0.147,1.289-0.148,1.86c-0.295,0.569-0.855,0.953-1.682,1.15
			c-3.976,0.983-7.596,1.544-10.862,1.683c-3.267,0.138-6.198-0.029-8.796-0.502c-2.519-0.512-4.457-1.26-5.814-2.243
			c-1.357-0.984-2.352-2.224-2.98-3.719c-0.434-0.983-0.709-2.056-0.827-3.218c-0.118-1.16-0.108-2.361,0.03-3.601
			c0.137-1.239,0.383-2.488,0.737-3.748s0.786-2.499,1.299-3.72c0.865-2.085,2.046-4.171,3.542-6.257
			c1.495-2.086,3.158-4.054,4.988-5.903s3.738-3.532,5.727-5.048c1.986-1.515,3.904-2.745,5.755-3.689
			c0.786-0.393,1.437-0.59,1.948-0.59c0.511,0,0.904,0.138,1.181,0.413c0.433,0.434,0.649,1.004,0.649,1.712
			s-0.197,1.397-0.59,2.066c-0.355,0.59-0.759,0.994-1.211,1.21c-0.453,0.217-1.014,0.286-1.682,0.206
			c-1.379,0.788-2.874,1.821-4.487,3.1c-1.614,1.279-3.179,2.696-4.692,4.25c-1.516,1.556-2.903,3.228-4.162,5.019
			c-1.26,1.791-2.225,3.591-2.893,5.401c-0.315,0.905-0.611,1.82-0.886,2.744c-0.276,0.926-0.472,1.83-0.591,2.716
			c-0.117,0.886-0.157,1.741-0.117,2.568c0.039,0.826,0.215,1.594,0.531,2.302c0.393,0.906,1.013,1.674,1.859,2.303
			c0.846,0.63,2.075,1.082,3.689,1.357c1.141,0.196,2.332,0.334,3.571,0.413c1.239,0.078,2.577,0.078,4.015,0
			c1.436-0.079,2.98-0.256,4.634-0.531s3.462-0.669,5.431-1.181C241.732,53.462,242.676,53.955,243.07,55.292z"/>
		<path d="M281.5,48.857c0.275,0.513,0.334,1.062,0.178,1.646c-0.158,0.586-0.571,1.034-1.24,1.345
			c-1.771,0.776-3.395,1.416-4.869,1.921c-1.477,0.506-3.041,0.776-4.693,0.815c-1.496,0.039-2.913-0.154-4.251-0.582
			c-1.339-0.427-2.519-1.281-3.542-2.562c-0.708-0.895-1.25-1.912-1.623-3.054c-0.375-1.142-0.66-2.086-0.855-2.834
			c-0.236-0.983-0.631-1.524-1.182-1.623c-0.551-0.098-1.338,0.168-2.361,0.797c-0.551,0.315-1.239,0.777-2.065,1.388
			c-0.827,0.61-1.683,1.289-2.568,2.036c-0.886,0.748-1.751,1.532-2.597,2.352c-0.848,0.819-1.585,1.598-2.215,2.336
			c-0.434,0.544-0.924,0.913-1.475,1.107c-0.553,0.193-1.073,0.242-1.564,0.146c-0.493-0.097-0.926-0.35-1.299-0.758
			c-0.375-0.407-0.582-0.961-0.62-1.66c-0.236-3.175-0.364-6.268-0.384-9.278c-0.021-3.011,0.137-5.844,0.473-8.5
			c0.334-2.657,0.855-5.086,1.564-7.291c0.708-2.203,1.652-4.132,2.833-5.785c0.394-0.59,0.886-0.924,1.476-1.004
			c0.59-0.078,1.141,0,1.653,0.236c0.591,0.315,0.983,0.748,1.181,1.299c0.196,0.552,0.02,1.161-0.531,1.83
			c-1.062,1.26-1.88,2.873-2.45,4.841c-0.571,1.969-0.983,4.083-1.239,6.346c-0.257,2.264-0.395,4.536-0.414,6.818
			c-0.02,2.283-0.01,4.33,0.03,6.14c0.55-0.591,1.21-1.22,1.978-1.89c0.768-0.668,1.535-1.308,2.303-1.918
			c0.767-0.61,1.514-1.171,2.242-1.683c0.729-0.511,1.328-0.924,1.801-1.239c1.141-0.669,2.292-1.142,3.453-1.417
			c1.16-0.275,2.214-0.236,3.158,0.118c0.865,0.315,1.545,0.807,2.037,1.476c0.492,0.67,0.855,1.594,1.092,2.774
			c0.157,0.826,0.403,1.752,0.738,2.774c0.334,1.024,0.717,1.791,1.15,2.303c0.434,0.551,0.905,0.965,1.418,1.239
			c0.51,0.275,1.337,0.413,2.479,0.413c1.062,0,2.214-0.196,3.453-0.59c1.24-0.394,2.746-0.983,4.517-1.771
			c0.669-0.314,1.239-0.363,1.712-0.147C280.852,47.982,281.225,48.347,281.5,48.857z"/>
		<path d="M311.844,49.625c0.393,0.512,0.54,1.103,0.442,1.771c-0.099,0.669-0.463,1.201-1.093,1.594
			c-1.338,0.748-2.862,1.427-4.574,2.036c-1.712,0.61-3.297,0.994-4.752,1.151c-1.732,0.157-3.061,0.06-3.984-0.295
			c-0.926-0.354-1.723-1.043-2.392-2.066c-0.276-0.354-0.522-0.886-0.737-1.594c-0.217-0.708-0.325-1.338-0.325-1.889
			c-0.04-0.314-0.187-0.502-0.442-0.562c-0.257-0.059-0.541,0.03-0.856,0.266c-0.433,0.276-0.954,0.66-1.563,1.151
			c-0.611,0.493-1.261,1.033-1.949,1.624c-0.688,0.59-1.387,1.2-2.096,1.829c-0.708,0.63-1.377,1.2-2.007,1.712
			c-1.496,1.142-2.893,1.742-4.19,1.801c-1.299,0.06-2.361-0.286-3.188-1.033c-1.024-0.905-1.534-2.264-1.534-4.073
			c0.038-0.865,0.177-1.721,0.412-2.567c0.236-0.846,0.551-1.662,0.945-2.45c0.59-1.181,1.318-2.341,2.184-3.482
			s1.781-2.214,2.746-3.218c0.963-1.003,1.938-1.908,2.922-2.715c0.982-0.807,1.889-1.485,2.715-2.037
			c0.709-0.473,1.515-0.974,2.42-1.505s1.879-0.925,2.923-1.181c1.042-0.256,2.134-0.305,3.276-0.148
			c1.141,0.158,2.281,0.709,3.424,1.653c0.511,0.434,0.787,0.906,0.826,1.417c0.039,0.512-0.059,0.984-0.295,1.417
			c-0.315,0.551-0.817,0.915-1.506,1.092s-1.348,0.069-1.977-0.325c-0.906-0.708-1.9-0.974-2.982-0.797
			c-1.082,0.178-2.352,0.759-3.807,1.742c-0.709,0.472-1.506,1.092-2.391,1.859c-0.887,0.768-1.742,1.604-2.568,2.509
			s-1.604,1.84-2.332,2.804c-0.729,0.965-1.309,1.899-1.741,2.805c-0.236,0.472-0.394,1.043-0.472,1.712
			c-0.08,0.669,0.038,1.121,0.354,1.357c0.433,0.354,1.062,0.177,1.889-0.531c0.591-0.511,1.328-1.142,2.215-1.89
			c0.885-0.747,1.8-1.505,2.744-2.272c0.945-0.768,1.879-1.505,2.805-2.214c0.924-0.708,1.74-1.278,2.449-1.712
			c0.59-0.354,1.189-0.6,1.801-0.737c0.609-0.138,1.15-0.147,1.623-0.03c0.473,0.118,0.846,0.375,1.121,0.768
			c0.275,0.395,0.414,0.926,0.414,1.594c-0.04,0.788-0.029,1.526,0.029,2.214c0.059,0.689,0.187,1.29,0.384,1.801
			c0.236,0.67,0.561,1.122,0.974,1.357c0.414,0.236,0.954,0.335,1.623,0.296c0.512-0.079,1.102-0.207,1.771-0.384
			c0.669-0.178,1.338-0.384,2.008-0.62c0.668-0.236,1.328-0.481,1.977-0.738c0.65-0.255,1.211-0.502,1.684-0.737
			c0.59-0.275,1.101-0.354,1.534-0.236C311.154,49.035,311.527,49.271,311.844,49.625z"/>
		<path d="M349.801,50.038c0.039,0.434-0.059,0.856-0.295,1.27s-0.61,0.719-1.121,0.915c-0.236,0.079-0.482,0.147-0.738,0.207
			c-0.256,0.059-0.541,0.05-0.855-0.03c-0.788,0.315-1.732,0.68-2.834,1.093s-2.264,0.896-3.482,1.446
			c-2.125,0.904-4.143,1.131-6.051,0.679c-1.91-0.453-3.355-1.722-4.34-3.808c-0.669-1.377-1.102-2.725-1.298-4.044
			c-0.198-1.318-0.354-2.41-0.473-3.276c-0.118-0.551-0.452-0.865-1.003-0.944c-0.354-0.078-0.759-0.039-1.211,0.118
			c-0.453,0.157-0.936,0.394-1.445,0.708c-0.395,0.276-0.818,0.62-1.27,1.033c-0.453,0.413-0.936,0.847-1.447,1.299
			c-0.512,0.453-1.032,0.915-1.563,1.388c-0.532,0.472-1.054,0.885-1.564,1.239c-0.472,0.354-0.995,0.807-1.564,1.357
			c-0.571,0.552-1.122,1.122-1.653,1.712c-0.531,0.591-1.003,1.172-1.416,1.742c-0.414,0.569-0.719,1.052-0.916,1.446
			c-0.437,0.786-0.963,1.239-1.581,1.357s-1.206,0.059-1.765-0.177c-0.559-0.236-0.928-0.552-1.107-0.945s-0.27-0.826-0.27-1.298
			c0-1.063,0-2.145,0-3.247c0-1.142,0-2.223,0-3.247c0-1.022-0.01-1.986-0.029-2.893c-0.02-0.904-0.029-1.672-0.029-2.302
			c-0.59-0.157-0.885-0.512-0.885-1.062c0.078-0.354,0.226-0.798,0.442-1.329c0.216-0.531,0.463-0.953,0.741-1.269
			c0.199-0.275,0.479-0.462,0.837-0.561s0.757-0.128,1.196-0.089c0.479,0.039,0.918,0.188,1.316,0.442
			c0.398,0.257,0.639,0.641,0.717,1.151c0.041,0.552,0.08,1.221,0.121,2.007c0.039,0.788,0.06,1.614,0.06,2.479
			c0,0.826,0,1.653,0,2.479s-0.021,1.555-0.06,2.185c0.512-0.747,1.16-1.466,1.948-2.155c0.787-0.688,1.535-1.348,2.243-1.978
			c0.826-0.787,1.683-1.573,2.568-2.361c0.885-0.786,1.721-1.455,2.509-2.007c0.865-0.669,1.839-1.2,2.922-1.594
			c1.082-0.394,2.096-0.57,3.04-0.531c1.141-0.039,2.125,0.275,2.951,0.944c0.827,0.67,1.338,1.692,1.535,3.069
			c0.197,1.535,0.414,2.893,0.65,4.073c0.235,1.181,0.531,2.165,0.885,2.952c0.433,0.944,1.082,1.467,1.948,1.564
			c0.865,0.099,1.731-0.03,2.597-0.384c1.26-0.512,2.637-1.072,4.133-1.683c1.495-0.609,2.854-1.053,4.073-1.328
			c0.905-0.196,1.594-0.068,2.066,0.384C349.506,48.69,349.762,49.291,349.801,50.038z"/>
	</g>
</g>
<g id="PRINT" display="none">
	<text transform="matrix(1 0 0 1 64.085 54.584)" display="inline" font-family="'Desyrel'" font-size="59.0323">athy Chan</text>
</g>
</svg>
