<?xml version="1.0" encoding="utf-8"?>
<!-- Generator: Adobe Illustrator 16.0.0, SVG Export Plug-In . SVG Version: 6.00 Build 0)  -->
<!DOCTYPE svg PUBLIC "-//W3C//DTD SVG 1.1//EN" "http://www.w3.org/Graphics/SVG/1.1/DTD/svg11.dtd">
<svg version="1.1" id="Layer_1" xmlns="http://www.w3.org/2000/svg" xmlns:xlink="http://www.w3.org/1999/xlink" x="0px" y="0px"
	 width="354.165px" height="84px" viewBox="0 0 354.165 84" enable-background="new 0 0 354.165 84" xml:space="preserve">
<g id="Layer_1_1_" display="none">
	<g id="U4Sx3f.tif" display="inline">
	</g>
</g>
<g id="Layer_3" display="none">
	<g display="inline">
		<g>
			<path fill="#B31F20" d="M140.365-5.4c7.414-0.986,14.328-3.686,20.49-7.887c4.692-3.201,16.896-8.443,13.086-16.082
				c-3.426-6.869-9.803-4.033-14.651-0.482c-1.556,1.141-4.905,4.23-6.69,1.459c-1.447-2.246-0.607-5.707-0.033-8.08
				c0.703-2.895,1.935-5.712,3.343-8.331c0.937-1.739,1.937-3.438,3.003-5.098c1.004-1.562,2.115-3.191,3.609-4.327
				c0.854-0.65,3.785,1.31,4.717,1.69c6.529,2.668,7.469-5.405,5.516-9.753c-3.021-6.732-12.084-8.992-18.213-5.912
				c-5.896,2.964-10.562,11.315-13.6,16.922c-0.768,1.418,1.393,2.68,2.158,1.262c2.873-5.307,6.422-10.37,10.795-14.539
				c4.734-4.517,10.305-2.666,14.672,1.045c2.259,1.917,2.986,4.441,2.582,7.327c-0.469,3.357-5.271,0.321-6.443-0.239
				c-5.771-2.754-11.094,10.065-12.859,14.411c-1.9,4.672-3.57,10.037-1.402,14.885c2.132,4.766,7.35,1.43,10.113-0.561
				c2.982-2.152,7.521-5.914,10.649-1.578c3.989,5.527-6.554,10.516-10.069,12.805c-6.457,4.203-13.029,7.535-20.77,8.564
				C138.791-7.691,138.771-5.189,140.365-5.4L140.365-5.4z"/>
		</g>
	</g>
</g>
<g id="Layer_1_2_">
	<g id="Layer_3_1_" display="none">
		<g display="inline">
			<g>
				<path fill="#B31F20" d="M143.365-5.4c7.414-0.986,14.328-3.686,20.49-7.887c4.689-3.201,16.896-8.443,13.086-16.082
					c-3.426-6.869-9.803-4.033-14.651-0.482c-1.556,1.141-4.905,4.23-6.69,1.459c-1.447-2.246-0.604-5.707-0.033-8.08
					c0.703-2.895,1.938-5.712,3.346-8.331c0.938-1.739,1.938-3.438,3.003-5.098c1.004-1.562,2.112-3.191,3.606-4.327
					c0.854-0.65,3.785,1.31,4.717,1.69c6.529,2.668,7.472-5.405,5.519-9.753c-3.021-6.732-12.084-8.992-18.213-5.912
					c-5.896,2.964-10.562,11.315-13.603,16.922c-0.768,1.418,1.396,2.68,2.158,1.262c2.873-5.307,6.422-10.37,10.795-14.539
					c4.734-4.517,10.308-2.666,14.672,1.045c2.262,1.917,2.986,4.441,2.582,7.327c-0.469,3.357-5.271,0.321-6.44-0.239
					c-5.771-2.754-11.097,10.065-12.856,14.411c-1.9,4.672-3.57,10.037-1.402,14.885c2.132,4.766,7.35,1.43,10.113-0.561
					c2.979-2.152,7.521-5.914,10.646-1.578c3.986,5.527-6.557,10.516-10.066,12.805c-6.457,4.203-13.029,7.535-20.771,8.564
					C141.791-7.691,141.771-5.189,143.365-5.4L143.365-5.4z"/>
			</g>
		</g>
	</g>
	<g id="Layer_2_1_" opacity="0.9">
		<path fill="none" stroke="#FFFFFF" stroke-width="3.9594" stroke-miterlimit="10" d="M14.021,80.658
			c0,0-10.792-38.695-6.082-47.583c4.707-8.889,10.976-24.057,17.778-27.193c6.799-3.138,24.055-2.21,27.713-1.689
			c3.66,0.521,8.918,6.951,12.062,9.532c5.716,4.706-3.326,9.783-8.605,7.216c0,0-6.076-4.187-8.16-4.078
			c-2.084,0.11-13.354,0.361-15.157,3.788c-1.803,3.431-8.548,14.323-9.942,18.909c-0.573,1.891,0.523,9.202,0.523,9.202
			s1.339,2.805,6.271,9.202c3.399,4.409,10.458,5.505,18.825-1.882C58.139,48.236,63.37,45.1,63.37,45.1s6.276-3.135,9.411,0
			c3.137,3.137,3.135,2.614-3.66,9.411c-4.576,4.573-15.883,16.954-18.072,20.183c-2.195,3.227-8.074,5.966-8.074,5.966"/>
		<path fill="none" stroke="#FFFFFF" stroke-width="3.9594" stroke-miterlimit="10" d="M32.838,21.381l15.812,1.156
			c0,0,4.938,2.28,8.992,5.115c4.498,3.15,9.442,1.909,9.442-1.238c0-3.149-2.78-5.763-2.78-5.763"/>
		<path fill="none" stroke="#FFFFFF" stroke-width="2.9696" stroke-miterlimit="10" d="M62.377,28.932c0,0,0.309,1.648-1.534,2.704
			c-1.853,1.055-9.128-4.454-11.659-4.984c-0.998-0.208-10.239-1.819-13.48-0.543l-11.38,12.037"/>
	</g>
	<g enable-background="new    ">
		<path fill="#FFFFFF" d="M106.459,49.625c0.393,0.512,0.541,1.104,0.443,1.771c-0.1,0.668-0.463,1.201-1.092,1.594
			c-1.338,0.748-2.863,1.427-4.576,2.035c-1.711,0.61-3.297,0.994-4.752,1.151c-1.731,0.157-3.061,0.06-3.983-0.295
			c-0.925-0.354-1.722-1.043-2.392-2.065c-0.275-0.354-0.521-0.887-0.737-1.594c-0.218-0.709-0.325-1.339-0.325-1.89
			c-0.04-0.313-0.188-0.502-0.443-0.562s-0.541,0.029-0.855,0.266c-0.434,0.275-0.955,0.66-1.564,1.15
			c-0.611,0.494-1.26,1.033-1.947,1.625c-0.689,0.59-1.387,1.199-2.096,1.828c-0.709,0.631-1.379,1.2-2.008,1.713
			c-1.496,1.142-2.893,1.741-4.191,1.801s-2.36-0.286-3.188-1.033c-1.023-0.905-1.535-2.264-1.535-4.073
			c0.039-0.864,0.178-1.721,0.413-2.567c0.236-0.846,0.552-1.662,0.945-2.449c0.59-1.182,1.317-2.342,2.184-3.482
			c0.865-1.142,1.78-2.214,2.745-3.218c0.964-1.003,1.938-1.908,2.922-2.715c0.983-0.807,1.889-1.485,2.715-2.037
			c0.709-0.473,1.516-0.974,2.42-1.505c0.905-0.531,1.879-0.925,2.922-1.181s2.135-0.305,3.276-0.148
			c1.142,0.158,2.282,0.709,3.425,1.653c0.51,0.434,0.787,0.906,0.825,1.417c0.039,0.512-0.059,0.984-0.295,1.417
			c-0.315,0.551-0.817,0.915-1.505,1.092c-0.689,0.177-1.35,0.069-1.979-0.325c-0.905-0.708-1.898-0.974-2.98-0.797
			c-1.083,0.178-2.352,0.759-3.809,1.742c-0.707,0.472-1.504,1.092-2.391,1.859c-0.886,0.768-1.742,1.604-2.568,2.51
			c-0.826,0.904-1.604,1.84-2.332,2.804c-0.729,0.965-1.309,1.899-1.74,2.805c-0.236,0.472-0.395,1.043-0.473,1.712
			c-0.08,0.669,0.039,1.121,0.354,1.357c0.433,0.354,1.062,0.177,1.89-0.531c0.59-0.511,1.327-1.143,2.213-1.891
			c0.885-0.746,1.801-1.504,2.746-2.271c0.944-0.768,1.879-1.505,2.803-2.214c0.925-0.708,1.742-1.278,2.451-1.712
			c0.59-0.354,1.189-0.6,1.801-0.737c0.609-0.138,1.15-0.147,1.623-0.03c0.473,0.119,0.846,0.375,1.121,0.769
			c0.275,0.396,0.414,0.926,0.414,1.594c-0.039,0.788-0.029,1.526,0.029,2.214c0.059,0.689,0.188,1.291,0.385,1.801
			c0.235,0.67,0.561,1.123,0.974,1.357c0.413,0.236,0.954,0.335,1.622,0.296c0.512-0.079,1.103-0.207,1.771-0.384
			c0.67-0.178,1.338-0.384,2.008-0.62c0.668-0.235,1.328-0.481,1.978-0.737s1.21-0.502,1.683-0.737
			c0.59-0.275,1.102-0.354,1.535-0.236C105.771,49.035,106.145,49.271,106.459,49.625z"/>
		<path fill="#FFFFFF" d="M122.752,39.107c0,0.498-0.177,0.949-0.531,1.354c-0.354,0.403-0.906,0.625-1.652,0.664
			c-0.866,0-2.116-0.039-3.75-0.118c-1.633-0.079-3.217-0.118-4.752-0.118c0,1.103,0.039,2.253,0.119,3.453
			c0.078,1.201,0.187,2.361,0.324,3.483c0.137,1.12,0.285,2.194,0.443,3.217c0.156,1.022,0.334,1.909,0.531,2.656
			c0.156,0.67,0.067,1.229-0.267,1.683c-0.335,0.452-0.758,0.738-1.271,0.855c-0.559,0.156-1.137,0.089-1.735-0.207
			c-0.599-0.295-0.997-0.855-1.196-1.682c-0.438-1.731-0.787-3.779-1.047-6.14c-0.259-2.36-0.388-4.802-0.388-7.32h-4.31
			c-0.709,0.039-1.25-0.151-1.623-0.574c-0.375-0.421-0.562-0.9-0.562-1.437s0.177-1.024,0.531-1.465s0.905-0.699,1.653-0.776
			c0.511,0,1.141-0.01,1.889-0.029c0.747-0.019,1.554-0.028,2.42-0.028c0-1.22,0.049-2.617,0.146-4.191
			c0.099-1.573,0.256-3.217,0.473-4.929c0.216-1.712,0.473-3.424,0.768-5.136c0.295-1.712,0.62-3.336,0.975-4.87
			c-0.435-0.197-0.571-0.57-0.414-1.122c0.078-0.274,0.236-0.6,0.473-0.974s0.452-0.738,0.648-1.093
			c0.078-0.196,0.158-0.402,0.236-0.619c0.079-0.216,0.157-0.403,0.236-0.562c0.275-0.629,0.708-1.013,1.299-1.15
			c0.592-0.137,1.141-0.05,1.653,0.266c0.433,0.235,0.786,0.57,1.062,1.003c0.275,0.434,0.393,0.944,0.354,1.535
			c0,0.434-0.078,0.797-0.235,1.092s-0.335,0.601-0.53,0.915c-0.354,1.299-0.689,2.795-1.005,4.486
			c-0.315,1.692-0.6,3.435-0.856,5.225c-0.256,1.791-0.452,3.571-0.59,5.343c-0.138,1.771-0.207,3.364-0.207,4.781
			c0.434,0,1.033,0.01,1.802,0.028c0.767,0.02,1.573,0.048,2.42,0.087c0.846,0.039,1.69,0.087,2.538,0.144
			c0.846,0.058,1.564,0.125,2.154,0.201c0.59,0.077,1.033,0.315,1.328,0.718C122.605,38.159,122.752,38.609,122.752,39.107z"/>
		<path fill="#FFFFFF" d="M160.829,48.857c0.274,0.513,0.334,1.062,0.177,1.646c-0.158,0.586-0.57,1.034-1.238,1.345
			c-1.771,0.776-3.396,1.416-4.871,1.922s-3.041,0.775-4.692,0.814c-1.496,0.039-2.913-0.154-4.25-0.582
			c-1.338-0.427-2.519-1.281-3.542-2.562c-0.708-0.895-1.25-1.912-1.624-3.054c-0.375-1.142-0.66-2.086-0.856-2.834
			c-0.236-0.983-0.63-1.524-1.181-1.622c-0.552-0.099-1.338,0.168-2.36,0.797c-0.553,0.314-1.24,0.776-2.066,1.388
			c-0.827,0.61-1.684,1.288-2.568,2.036s-1.751,1.531-2.597,2.352c-0.847,0.818-1.584,1.598-2.214,2.336
			c-0.434,0.544-0.926,0.913-1.477,1.107c-0.552,0.193-1.072,0.242-1.563,0.146c-0.493-0.097-0.925-0.35-1.3-0.758
			c-0.375-0.407-0.58-0.961-0.619-1.66c-0.236-3.175-0.364-6.269-0.385-9.278c-0.021-3.011,0.138-5.844,0.473-8.5
			c0.334-2.657,0.855-5.086,1.564-7.291c0.707-2.203,1.652-4.132,2.832-5.785c0.394-0.59,0.887-0.924,1.477-1.004
			c0.59-0.078,1.141,0,1.652,0.236c0.59,0.315,0.983,0.748,1.182,1.299c0.195,0.552,0.019,1.161-0.531,1.83
			c-1.062,1.26-1.88,2.873-2.45,4.841c-0.571,1.969-0.983,4.083-1.239,6.346c-0.256,2.264-0.395,4.536-0.414,6.818
			c-0.02,2.283-0.01,4.331,0.031,6.14c0.549-0.591,1.209-1.22,1.977-1.89c0.768-0.668,1.535-1.309,2.303-1.918
			c0.768-0.61,1.514-1.171,2.243-1.684c0.728-0.511,1.327-0.924,1.8-1.239c1.141-0.669,2.292-1.142,3.454-1.417
			c1.16-0.275,2.213-0.236,3.157,0.118c0.865,0.315,1.545,0.807,2.037,1.476c0.492,0.67,0.856,1.594,1.093,2.774
			c0.157,0.826,0.403,1.752,0.737,2.774c0.334,1.023,0.717,1.791,1.151,2.303c0.433,0.551,0.905,0.965,1.417,1.238
			c0.512,0.275,1.338,0.414,2.479,0.414c1.063,0,2.215-0.196,3.455-0.59c1.24-0.395,2.744-0.983,4.516-1.771
			c0.668-0.314,1.24-0.363,1.712-0.146C160.18,47.982,160.553,48.348,160.829,48.857z"/>
		<path fill="#FFFFFF" d="M185.091,39.767c0.079,0.906,0.118,2.087,0.118,3.542c0,1.457-0.059,3.08-0.174,4.871
			c-0.117,1.791-0.262,3.699-0.434,5.727c-0.174,2.027-0.395,4.082-0.662,6.169c-0.269,2.085-0.558,4.151-0.862,6.198
			c-0.306,2.045-0.651,3.975-1.034,5.785c-0.154,0.786-0.5,1.336-1.041,1.652c-0.541,0.314-1.086,0.413-1.637,0.295
			c-0.59-0.079-1.073-0.363-1.446-0.855c-0.375-0.492-0.463-1.151-0.267-1.979c0.473-1.852,0.886-3.916,1.24-6.197
			c0.354-2.283,0.649-4.604,0.885-6.967c0.236-2.361,0.423-4.673,0.562-6.938c0.138-2.262,0.226-4.299,0.267-6.108
			c0.037-0.354-0.002-0.61-0.119-0.769c-0.118-0.156-0.285-0.256-0.502-0.295s-0.441,0-0.678,0.119
			c-0.238,0.117-0.453,0.274-0.649,0.472c-0.63,0.591-1.417,1.299-2.361,2.125c-0.944,0.827-1.948,1.683-3.011,2.567
			c-1.062,0.887-2.135,1.741-3.217,2.567c-1.084,0.827-2.076,1.535-2.981,2.126c-1.653,1.021-3.237,1.662-4.752,1.918
			c-1.517,0.256-2.942-0.146-4.28-1.21c-0.472-0.433-0.936-1.022-1.387-1.771c-0.453-0.748-0.699-1.752-0.738-3.012
			c0-0.945,0.148-1.958,0.443-3.041c0.295-1.08,0.679-2.134,1.15-3.158c0.473-1.021,0.975-1.967,1.506-2.833
			c0.531-0.865,1.013-1.555,1.445-2.066c0.433-0.551,0.944-0.865,1.535-0.944c0.59-0.078,1.102-0.02,1.535,0.177
			c0.629,0.315,1.023,0.778,1.182,1.388c0.156,0.61-0.06,1.289-0.649,2.036c-0.354,0.434-0.729,0.984-1.122,1.654
			c-0.395,0.67-0.768,1.356-1.122,2.065c-0.354,0.708-0.64,1.416-0.856,2.125c-0.217,0.708-0.324,1.338-0.324,1.889
			c0,0.435,0.078,0.777,0.236,1.033c0.156,0.257,0.313,0.463,0.471,0.62c0.354,0.354,0.816,0.472,1.388,0.354
			c0.569-0.117,1.249-0.433,2.037-0.945c1.181-0.746,2.409-1.622,3.688-2.627c1.278-1.002,2.568-2.064,3.867-3.188
			c1.299-1.121,2.568-2.252,3.809-3.395c1.24-1.141,2.391-2.223,3.453-3.246c0.473-0.512,1.035-0.827,1.689-0.945
			s1.27-0.078,1.844,0.118c0.498,0.197,0.93,0.531,1.295,1.004C184.793,38.349,185.014,38.98,185.091,39.767z"/>
		<path fill="#FFFFFF" d="M246.07,55.292c0.195,0.669,0.146,1.289-0.148,1.86c-0.295,0.568-0.855,0.953-1.682,1.149
			c-3.977,0.983-7.596,1.544-10.862,1.683s-6.198-0.028-8.796-0.502c-2.52-0.512-4.457-1.26-5.814-2.242
			c-1.356-0.984-2.352-2.225-2.979-3.719c-0.435-0.983-0.709-2.057-0.827-3.219c-0.118-1.16-0.107-2.361,0.03-3.601
			c0.137-1.239,0.383-2.488,0.737-3.748c0.354-1.26,0.785-2.499,1.299-3.72c0.865-2.085,2.046-4.171,3.541-6.257
			c1.496-2.086,3.158-4.054,4.988-5.903c1.83-1.849,3.738-3.532,5.728-5.048c1.985-1.515,3.903-2.745,5.755-3.689
			c0.786-0.393,1.438-0.59,1.947-0.59c0.512,0,0.904,0.138,1.182,0.413c0.434,0.434,0.648,1.004,0.648,1.712
			s-0.196,1.397-0.59,2.066c-0.354,0.59-0.758,0.994-1.211,1.21c-0.453,0.217-1.014,0.286-1.682,0.206
			c-1.379,0.788-2.874,1.821-4.486,3.1c-1.615,1.279-3.18,2.696-4.692,4.25c-1.517,1.556-2.903,3.228-4.162,5.019
			c-1.261,1.791-2.226,3.591-2.894,5.401c-0.314,0.905-0.61,1.819-0.886,2.744c-0.276,0.926-0.472,1.83-0.591,2.716
			c-0.117,0.886-0.157,1.741-0.117,2.568c0.039,0.826,0.215,1.594,0.531,2.302c0.393,0.905,1.013,1.674,1.859,2.303
			c0.846,0.63,2.074,1.082,3.688,1.357c1.142,0.196,2.332,0.334,3.571,0.413c1.238,0.078,2.576,0.078,4.015,0
			c1.437-0.079,2.979-0.256,4.634-0.531s3.463-0.669,5.432-1.182C244.732,53.462,245.676,53.955,246.07,55.292z"/>
		<path fill="#FFFFFF" d="M284.5,48.857c0.275,0.513,0.334,1.062,0.178,1.646c-0.158,0.586-0.57,1.034-1.24,1.345
			c-1.771,0.776-3.395,1.416-4.869,1.922c-1.477,0.506-3.041,0.775-4.692,0.814c-1.496,0.039-2.913-0.154-4.251-0.582
			c-1.339-0.427-2.52-1.281-3.542-2.562c-0.708-0.895-1.25-1.912-1.623-3.054c-0.375-1.142-0.66-2.086-0.854-2.834
			c-0.236-0.983-0.631-1.524-1.183-1.622c-0.551-0.099-1.338,0.168-2.36,0.797c-0.551,0.314-1.239,0.776-2.065,1.388
			c-0.827,0.61-1.683,1.288-2.567,2.036c-0.887,0.748-1.752,1.531-2.598,2.352c-0.848,0.818-1.585,1.598-2.215,2.336
			c-0.434,0.544-0.924,0.913-1.475,1.107c-0.554,0.193-1.074,0.242-1.564,0.146c-0.493-0.097-0.926-0.35-1.299-0.758
			c-0.375-0.407-0.582-0.961-0.62-1.66c-0.236-3.175-0.364-6.269-0.384-9.278c-0.021-3.011,0.137-5.844,0.473-8.5
			c0.334-2.657,0.855-5.086,1.564-7.291c0.707-2.203,1.651-4.132,2.832-5.785c0.395-0.59,0.887-0.924,1.477-1.004
			c0.59-0.078,1.141,0,1.652,0.236c0.592,0.315,0.983,0.748,1.182,1.299c0.195,0.552,0.02,1.161-0.531,1.83
			c-1.062,1.26-1.88,2.873-2.449,4.841c-0.572,1.969-0.983,4.083-1.24,6.346c-0.256,2.264-0.395,4.536-0.413,6.818
			c-0.021,2.283-0.011,4.331,0.03,6.14c0.549-0.591,1.209-1.22,1.978-1.89c0.769-0.668,1.535-1.309,2.303-1.918
			c0.767-0.61,1.515-1.171,2.242-1.684c0.729-0.511,1.328-0.924,1.801-1.239c1.142-0.669,2.292-1.142,3.453-1.417
			c1.16-0.275,2.214-0.236,3.158,0.118c0.864,0.315,1.545,0.807,2.037,1.476c0.491,0.67,0.854,1.594,1.092,2.774
			c0.157,0.826,0.403,1.752,0.737,2.774c0.334,1.023,0.718,1.791,1.15,2.303c0.434,0.551,0.905,0.965,1.418,1.238
			c0.51,0.275,1.338,0.414,2.479,0.414c1.062,0,2.214-0.196,3.452-0.59c1.24-0.395,2.746-0.983,4.518-1.771
			c0.669-0.314,1.239-0.363,1.712-0.146C283.852,47.982,284.225,48.348,284.5,48.857z"/>
		<path fill="#FFFFFF" d="M314.844,49.625c0.394,0.512,0.54,1.104,0.442,1.771c-0.1,0.668-0.463,1.201-1.093,1.594
			c-1.338,0.748-2.862,1.427-4.574,2.035c-1.712,0.61-3.297,0.994-4.752,1.151c-1.732,0.157-3.061,0.06-3.984-0.295
			c-0.926-0.354-1.723-1.043-2.392-2.065c-0.276-0.354-0.522-0.887-0.737-1.594c-0.217-0.709-0.325-1.339-0.325-1.89
			c-0.04-0.313-0.187-0.502-0.442-0.562s-0.541,0.029-0.855,0.266c-0.434,0.275-0.954,0.66-1.562,1.15
			c-0.611,0.494-1.262,1.033-1.949,1.625c-0.688,0.59-1.387,1.199-2.096,1.828c-0.709,0.631-1.377,1.2-2.008,1.713
			c-1.496,1.142-2.893,1.741-4.189,1.801c-1.299,0.06-2.361-0.286-3.188-1.033c-1.024-0.905-1.535-2.264-1.535-4.073
			c0.039-0.864,0.178-1.721,0.412-2.567c0.236-0.846,0.551-1.662,0.945-2.449c0.59-1.182,1.318-2.342,2.184-3.482
			c0.866-1.141,1.781-2.214,2.746-3.218c0.963-1.003,1.938-1.908,2.922-2.715c0.982-0.807,1.89-1.485,2.715-2.037
			c0.709-0.473,1.516-0.974,2.421-1.505c0.905-0.531,1.879-0.925,2.923-1.181c1.042-0.256,2.134-0.305,3.275-0.148
			c1.142,0.158,2.281,0.709,3.424,1.653c0.512,0.434,0.787,0.906,0.826,1.417c0.039,0.512-0.059,0.984-0.295,1.417
			c-0.314,0.551-0.816,0.915-1.506,1.092c-0.689,0.177-1.348,0.069-1.977-0.325c-0.906-0.708-1.9-0.974-2.982-0.797
			c-1.082,0.178-2.352,0.759-3.807,1.742c-0.709,0.472-1.506,1.092-2.391,1.859c-0.888,0.768-1.742,1.604-2.568,2.51
			c-0.826,0.904-1.604,1.84-2.332,2.804c-0.729,0.965-1.309,1.899-1.741,2.805c-0.235,0.472-0.394,1.043-0.472,1.712
			c-0.08,0.669,0.038,1.121,0.354,1.357c0.434,0.354,1.062,0.177,1.889-0.531c0.592-0.511,1.328-1.143,2.216-1.891
			c0.885-0.746,1.8-1.504,2.743-2.271c0.945-0.768,1.88-1.505,2.806-2.214c0.924-0.708,1.74-1.278,2.449-1.712
			c0.59-0.354,1.188-0.6,1.801-0.737c0.608-0.138,1.149-0.147,1.623-0.03c0.474,0.119,0.846,0.375,1.121,0.769
			c0.274,0.396,0.414,0.926,0.414,1.594c-0.04,0.788-0.029,1.526,0.028,2.214c0.06,0.689,0.188,1.291,0.385,1.801
			c0.236,0.67,0.561,1.123,0.974,1.357c0.414,0.236,0.954,0.335,1.623,0.296c0.513-0.079,1.103-0.207,1.771-0.384
			c0.67-0.178,1.338-0.384,2.008-0.62c0.669-0.235,1.329-0.481,1.978-0.737c0.65-0.256,1.211-0.502,1.685-0.737
			c0.59-0.275,1.101-0.354,1.533-0.236C314.154,49.035,314.527,49.271,314.844,49.625z"/>
		<path fill="#FFFFFF" d="M352.801,50.038c0.039,0.435-0.059,0.856-0.295,1.271s-0.609,0.719-1.121,0.914
			c-0.235,0.079-0.481,0.147-0.738,0.207c-0.256,0.06-0.54,0.051-0.854-0.029c-0.788,0.314-1.732,0.68-2.834,1.093
			c-1.103,0.413-2.264,0.896-3.482,1.446c-2.125,0.903-4.143,1.131-6.051,0.679c-1.91-0.453-3.354-1.722-4.34-3.808
			c-0.669-1.377-1.102-2.726-1.298-4.045c-0.198-1.317-0.354-2.41-0.473-3.275c-0.118-0.551-0.452-0.865-1.004-0.944
			c-0.354-0.078-0.759-0.039-1.211,0.118c-0.453,0.156-0.936,0.395-1.444,0.708c-0.396,0.276-0.818,0.62-1.271,1.033
			c-0.453,0.413-0.936,0.847-1.447,1.299c-0.512,0.453-1.031,0.915-1.562,1.388c-0.532,0.473-1.054,0.885-1.564,1.239
			c-0.472,0.354-0.994,0.808-1.563,1.356c-0.571,0.553-1.122,1.123-1.653,1.713c-0.531,0.591-1.003,1.172-1.416,1.742
			c-0.414,0.568-0.719,1.051-0.916,1.445c-0.437,0.786-0.963,1.239-1.581,1.357c-0.617,0.117-1.206,0.059-1.765-0.178
			c-0.559-0.235-0.928-0.552-1.107-0.944c-0.179-0.394-0.27-0.826-0.27-1.298c0-1.063,0-2.146,0-3.248c0-1.142,0-2.223,0-3.246
			c0-1.022-0.01-1.986-0.029-2.893c-0.02-0.904-0.028-1.673-0.028-2.303c-0.591-0.156-0.886-0.512-0.886-1.062
			c0.078-0.354,0.227-0.798,0.442-1.329c0.216-0.531,0.463-0.953,0.741-1.269c0.199-0.275,0.479-0.462,0.837-0.561
			c0.357-0.099,0.757-0.128,1.196-0.089c0.479,0.039,0.918,0.188,1.315,0.442c0.398,0.257,0.639,0.641,0.717,1.151
			c0.041,0.552,0.08,1.221,0.121,2.007c0.039,0.788,0.061,1.614,0.061,2.479c0,0.826,0,1.652,0,2.479s-0.021,1.555-0.061,2.186
			c0.513-0.748,1.16-1.467,1.948-2.155c0.787-0.688,1.535-1.349,2.243-1.979c0.826-0.786,1.683-1.573,2.567-2.36
			c0.886-0.786,1.722-1.456,2.51-2.007c0.864-0.669,1.839-1.2,2.922-1.594c1.082-0.394,2.096-0.57,3.04-0.531
			c1.141-0.039,2.125,0.275,2.951,0.944c0.826,0.67,1.338,1.692,1.534,3.069c0.197,1.535,0.414,2.893,0.65,4.072
			c0.235,1.182,0.531,2.166,0.885,2.953c0.434,0.943,1.082,1.467,1.948,1.563c0.865,0.099,1.731-0.03,2.597-0.384
			c1.261-0.512,2.638-1.072,4.134-1.684c1.494-0.609,2.854-1.053,4.072-1.328c0.905-0.195,1.595-0.067,2.066,0.385
			C352.506,48.689,352.762,49.291,352.801,50.038z"/>
	</g>
</g>
</svg>
