<?xml version="1.0" encoding="utf-8"?>
<!-- Generator: Adobe Illustrator 16.0.0, SVG Export Plug-In . SVG Version: 6.00 Build 0)  -->
<!DOCTYPE svg PUBLIC "-//W3C//DTD SVG 1.1//EN" "http://www.w3.org/Graphics/SVG/1.1/DTD/svg11.dtd">
<svg version="1.1" xmlns="http://www.w3.org/2000/svg" xmlns:xlink="http://www.w3.org/1999/xlink" x="0px" y="0px" width="104px"
	 height="134px" viewBox="0 0 104 134" enable-background="new 0 0 104 134" xml:space="preserve">
<g id="Layer_2" display="none">
	<g display="inline">
		<polygon fill="none" stroke="#FF504E" stroke-width="4" stroke-miterlimit="10" points="3.333,4 3.333,130.667 100.667,130.667 
			100.667,33.667 69.333,4 		"/>
		<path fill="none" stroke="#FF504E" stroke-width="4" stroke-miterlimit="10" d="M69.417,4"/>
		<path fill="none" stroke="#FF504E" stroke-width="4" stroke-miterlimit="10" d="M100.667,33.667"/>
		<line fill="none" stroke="#FF504E" stroke-width="4" stroke-miterlimit="10" x1="20" y1="30.667" x2="56.333" y2="30.667"/>
		<line fill="none" stroke="#FF504E" stroke-width="4" stroke-miterlimit="10" x1="20" y1="54.333" x2="85" y2="54.333"/>
		<line fill="none" stroke="#FF504E" stroke-width="4" stroke-miterlimit="10" x1="20" y1="77.333" x2="85" y2="77.333"/>
		<line fill="none" stroke="#FF504E" stroke-width="4" stroke-miterlimit="10" x1="20" y1="100.667" x2="85" y2="100.667"/>
		<polyline fill="none" stroke="#FF504E" stroke-width="4" stroke-miterlimit="10" points="100.667,33.667 69.417,33.667 69.417,4 
					"/>
	</g>
</g>
<g id="Layer_4">
	<path fill="#3CB224" d="M52.748,98.994c-10.061,0-18.246-8.185-18.246-18.244c0-10.061,8.185-18.246,18.246-18.246
		s18.245,8.186,18.245,18.246C70.993,90.81,62.809,98.994,52.748,98.994z M52.748,65.463c-8.428,0-15.285,6.857-15.285,15.287
		c0,8.429,6.857,15.286,15.285,15.286c8.43,0,15.287-6.857,15.287-15.286C68.035,72.32,61.178,65.463,52.748,65.463z"/>
	<path fill="#3CB224" d="M29.262,132.631c-4.509,0-8.439-3.66-8.761-8.16l-6.13-85.777l-1.125-0.373
		c-3.401-1.126-5.686-4.289-5.686-7.869v-6.706c0-3.699,2.49-6.98,6.056-7.979l0.989-0.278l1.439-5.738
		c1.085-4.322,5.422-7.708,9.872-7.708h53.65c4.383,0,8.81,3.457,9.868,7.706l1.368,5.715l1.052,0.303
		c3.565,0.997,6.054,4.278,6.054,7.979v6.706c0,3.581-2.285,6.744-5.688,7.868l-1.125,0.372l-6.121,85.778
		c-0.328,4.499-4.262,8.16-8.767,8.16H29.262z M23.667,124.244c0.212,2.88,2.728,5.219,5.609,5.219h46.938
		c2.879,0,5.395-2.338,5.608-5.214l0.837-11.737H22.831L23.667,124.244z M22.612,109.345h60.281l0.124-1.644l3.959-55.546H18.531
		L22.612,109.345z M18.298,48.988h68.91l0.729-10.246H17.574L18.298,48.988z M15.851,18.624c-2.817,0.009-5.111,2.307-5.111,5.123
		v6.706c0,2.825,2.299,5.123,5.123,5.123h73.771c2.203,0,4.195-1.688,4.807-3.354c0.613-1.665,0.323-8.476,0.323-8.476
		c0-2.825-2.299-5.123-5.122-5.123H15.887H15.851z M25.917,5.21c-2.967,0-6.077,2.429-6.792,5.305l-1.234,4.941h69.712l-1.235-4.943
		c-0.721-2.875-3.831-5.303-6.793-5.303H25.917z"/>
</g>
</svg>
